<svg version="1.1" xmlns="http://www.w3.org/2000/svg" width="512px" height="512px">
<path d="M0 0 C11.42889495 9.56640837 18.16339476 22.36058952 21.43457031 36.70727539 C21.64343998 37.60496423 21.85230965 38.50265306 22.0675087 39.42754459 C24.98766182 52.18942645 27.50102813 65.03983847 30.05112362 77.87961078 C30.78863394 81.58882559 31.53049258 85.29717096 32.27178955 89.00563049 C33.51139157 95.21003201 34.74817348 101.41498981 35.98291016 107.62036133 C37.56540177 115.57337993 39.15238891 123.52549446 40.74084091 131.47732449 C42.11439513 138.35339912 43.48623639 145.22981531 44.85763264 152.10632062 C45.15042361 153.57431584 45.44327218 155.04229956 45.7361784 156.51027179 C46.69631095 161.32223916 47.65473536 166.13454337 48.61230469 170.94702148 C48.85332413 172.15480759 49.09434357 173.36259369 49.34266663 174.60697937 C49.56399765 175.72078979 49.78532867 176.83460022 50.0133667 177.98216248 C50.2050581 178.94489295 50.3967495 179.90762342 50.59424973 180.89952755 C54.04375562 199.01940024 52.70217989 217.05782793 42.125 232.6875 C32.43658437 246.4253706 19.2100834 255.69121809 2.68725586 259.05615234 C1.29408976 259.35639848 1.29408976 259.35639848 -0.12722111 259.66271019 C-3.37308177 260.35503282 -6.62335556 261.02288654 -9.875 261.6875 C-11.11212109 261.9430793 -12.34924217 262.1986586 -13.62385178 262.46198273 C-23.2092135 264.44128808 -32.80423036 266.37163221 -42.40115619 268.29395342 C-46.62648743 269.14093834 -50.85117416 269.99112698 -55.07594299 270.84091187 C-63.10532931 272.45547528 -71.13528373 274.06719453 -79.1654492 275.67787778 C-88.09590579 277.46929716 -97.02568109 279.26410072 -105.95541453 281.05912066 C-122.21021584 284.32649017 -138.46591726 287.58935248 -154.72231102 290.84878922 C-163.08435047 292.52547909 -171.44608231 294.20367933 -179.80717868 295.88506615 C-185.69194758 297.06844902 -191.57706283 298.25009826 -197.46232796 299.4310112 C-199.8130626 299.90304028 -202.16366634 300.3757218 -204.51412773 300.84910965 C-207.68492647 301.48761411 -210.85619164 302.12374844 -214.02758789 302.75927734 C-214.93525217 302.94267544 -215.84291645 303.12607353 -216.77808571 303.31502914 C-236.63886833 307.28320979 -254.48824875 305.77352589 -271.875 294.6875 C-275.5191769 291.93904575 -278.72707621 288.98647579 -281.875 285.6875 C-282.43316406 285.14867187 -282.99132812 284.60984375 -283.56640625 284.0546875 C-290.63724501 276.70692294 -294.39919048 267.06278289 -296.78717041 257.3336792 C-296.96192154 256.62706453 -297.13667267 255.92044986 -297.31671929 255.19242263 C-299.03832909 248.15179504 -300.5411641 241.07093837 -301.99121094 233.96972656 C-302.27727246 232.58106644 -302.56358105 231.19245719 -302.85011292 229.80389404 C-303.77527924 225.3130728 -304.6928828 220.82072329 -305.609375 216.328125 C-305.76680711 215.55707019 -305.92423922 214.78601538 -306.08644199 213.99159527 C-307.57724655 206.68981722 -309.06554771 199.38753421 -310.54691696 192.0838356 C-312.42406257 182.82939619 -314.31428592 173.57785033 -316.22277808 164.32982278 C-317.5741872 157.77575018 -318.9103742 151.21868096 -320.23572564 144.65929008 C-321.02307153 140.7645611 -321.81656007 136.87135227 -322.62657928 132.98126984 C-333.02506531 82.96220304 -333.02506531 82.96220304 -318.859375 60.47265625 C-301.34452236 35.88980205 -275.53060399 32.298888 -247.796875 26.75 C-245.42272747 26.27212816 -243.04864466 25.79393466 -240.67462158 25.31544495 C-234.96656029 24.16588037 -229.25781298 23.01977474 -223.54870915 21.87539977 C-216.92654274 20.54786011 -210.30517438 19.21636039 -203.68381596 17.88479769 C-190.76372349 15.28674847 -177.84259311 12.69389154 -164.92102814 10.10317707 C-155.81615688 8.27764934 -146.71166344 6.45024819 -137.60742188 4.62158203 C-124.78658007 2.04651921 -111.96508291 -0.52526097 -99.1431427 -3.09484863 C-95.87948492 -3.74910093 -92.61593927 -4.40391007 -89.35241699 -5.05883789 C-84.25832575 -6.0809581 -79.1638367 -7.10107161 -74.06902313 -8.11958504 C-72.21666135 -8.4901915 -70.36442837 -8.86144241 -68.51233673 -9.23339653 C-65.99556169 -9.73870643 -63.47831783 -10.24161208 -60.9609375 -10.74389648 C-60.23771175 -10.88966629 -59.51448601 -11.0354361 -58.76934433 -11.18562317 C-37.27487738 -15.45792826 -18.03857419 -13.08802209 0 0 Z M-55.01617432 27.86628723 C-55.65356875 27.99328324 -56.29096319 28.12027924 -56.94767261 28.25112361 C-59.09601957 28.67966099 -61.24380311 29.11095891 -63.39160156 29.54223633 C-64.92984324 29.84967009 -66.4681182 30.15693733 -68.00642395 30.46405029 C-72.21056538 31.30390419 -76.41421842 32.14617982 -80.61778355 32.98891282 C-85.0672614 33.88057306 -89.5171478 34.77019001 -93.96697998 35.66007996 C-101.49664141 37.16620022 -109.02600295 38.67381226 -116.55517578 40.18237305 C-124.17502736 41.70909329 -131.79512635 43.23456933 -139.41552734 44.75854492 C-182.25104191 53.32510839 -225.08064246 61.9172387 -267.875 70.6875 C-265.33388672 73.26847169 -262.89615117 75.50977115 -259.890625 77.53515625 C-258.74750854 78.31076904 -258.74750854 78.31076904 -257.58129883 79.10205078 C-256.77072021 79.64587402 -255.9601416 80.18969727 -255.125 80.75 C-253.40481338 81.91516599 -251.68476339 83.08053371 -249.96484375 84.24609375 C-249.10616699 84.82601074 -248.24749023 85.40592773 -247.36279297 86.00341797 C-243.79139971 88.4210304 -240.23861737 90.86524642 -236.6875 93.3125 C-235.37765589 94.21361686 -234.06776025 95.11465882 -232.7578125 96.015625 C-230.81734372 97.35085465 -228.87693352 98.68616942 -226.93652344 100.02148438 C-219.08988562 105.42072788 -211.23723632 110.81098984 -203.375 116.1875 C-195.51712185 121.56102988 -187.66888908 126.9483901 -179.82666016 132.34472656 C-177.8469617 133.7067908 -175.86690832 135.06833737 -173.88671875 136.4296875 C-173.22397949 136.88537109 -172.56124023 137.34105469 -171.87841797 137.81054688 C-170.55352745 138.72114675 -169.22833696 139.63131034 -167.90283203 140.54101562 C-164.40007075 142.94597398 -160.90452958 145.36066493 -157.41796875 147.7890625 C-156.68900391 148.29501953 -155.96003906 148.80097656 -155.20898438 149.32226562 C-153.80849626 150.29457903 -152.40996084 151.26971285 -151.01367188 152.24804688 C-146.81200609 155.15953893 -143.68050024 156.83205181 -138.5625 157 C-137.45455078 157.05607422 -137.45455078 157.05607422 -136.32421875 157.11328125 C-131.15275373 156.21425464 -127.97334292 153.10815974 -125.05078125 148.95703125 C-124.08421802 147.47922105 -123.13039499 145.9930226 -122.1875 144.5 C-121.66768555 143.69828369 -121.14787109 142.89656738 -120.61230469 142.07055664 C-119.5386521 140.41200133 -118.47013308 138.75011171 -117.40673828 137.08496094 C-116.02099241 134.91600582 -114.62205123 132.75663052 -113.21484375 130.6015625 C-107.05498454 121.1551256 -101.00358785 111.63842644 -94.92993164 102.13647461 C-89.11266396 93.04255313 -83.23703599 83.98763687 -77.34375 74.94287109 C-73.17088424 68.53513608 -69.01694531 62.11525952 -64.875 55.6875 C-64.21435547 54.66237305 -63.55371094 53.63724609 -62.87304688 52.58105469 C-61.04785383 49.74742437 -59.22549271 46.91198649 -57.4046936 44.07553101 C-56.33119965 42.40411511 -55.25582621 40.73390683 -54.18041992 39.0637207 C-53.52146729 38.03593506 -52.86251465 37.00814941 -52.18359375 35.94921875 C-51.59376709 35.03100342 -51.00394043 34.11278809 -50.39624023 33.16674805 C-49.09492036 31.04591618 -47.94104383 28.93344338 -46.875 26.6875 C-49.68129245 26.6875 -52.26279201 27.31534872 -55.01617432 27.86628723 Z " fill="#004a40" transform="translate(431.875,96.3125)"/>
<path d="M0 0 C4.33513746 3.87578515 7.52701321 8.16437278 8.25 14.02734375 C8.56988653 19.87526936 7.35991333 24.19711448 4 29 C-3.69266352 37.25554134 -16.71493614 39.230681 -27.1875 42.25 C-28.40630859 42.61351562 -29.62511719 42.97703125 -30.88085938 43.3515625 C-46.50563069 47.86180577 -46.50563069 47.86180577 -53.125 44.4375 C-58.21479651 41.62656702 -62.15370881 37.53887357 -64 32 C-64.61431166 25.76624727 -64.35618936 20.49648876 -61.55859375 14.8515625 C-56.88197455 9.29587954 -51.02700513 6.98841647 -44.25 5.10546875 C-43.43305664 4.86838699 -42.61611328 4.63130524 -41.77441406 4.38703918 C-40.05853142 3.89245052 -38.34070655 3.40455496 -36.62109375 2.9230957 C-34.00246789 2.1881926 -31.39186353 1.42883493 -28.78125 0.66601562 C-27.10458543 0.18603475 -25.42751452 -0.29252942 -23.75 -0.76953125 C-22.59032715 -1.1069207 -22.59032715 -1.1069207 -21.40722656 -1.4511261 C-13.90266622 -3.52741033 -6.92034507 -4.00060516 0 0 Z " fill="#004a40" transform="translate(116,383)"/>
<path d="M0 0 C3.94902003 3.28102659 6.60200449 7.25774878 7.5703125 12.3046875 C8.1092013 18.77135315 7.17580715 22.90008611 3.5703125 28.3046875 C-2.1381616 34.52684142 -8.80819319 36.46770727 -16.70800781 38.6574707 C-18.80080686 39.24110528 -20.88015725 39.86135792 -22.9609375 40.48632812 C-31.42137828 42.94961676 -38.96484537 44.8105876 -47.2421875 40.5546875 C-51.84899609 37.30282262 -54.96290928 33.80510583 -56.4296875 28.3046875 C-57.10928498 22.35306108 -56.61911046 17.58168298 -53.98828125 12.19140625 C-48.31104725 5.3189651 -40.55390367 3.44044523 -32.3046875 1.0546875 C-31.13808594 0.7040625 -29.97148438 0.3534375 -28.76953125 -0.0078125 C-9.17193158 -5.84444012 -9.17193158 -5.84444012 0 0 Z " fill="#004a40" transform="translate(84.4296875,236.6953125)"/>
<path d="M0 0 C5.42045535 3.83398062 8.50637419 7.42768826 10.5625 13.8125 C11.30213437 20.36354727 9.94683871 25.15325812 6.5625 30.8125 C0.33113451 37.79918252 -11.45075061 39.49073003 -20.125 42.0625 C-21.01574219 42.33304199 -21.90648438 42.60358398 -22.82421875 42.88232422 C-29.36647485 44.77222819 -36.23820668 46.53750247 -42.625 43.1875 C-47.34915726 40.56090569 -50.02616773 37.23192674 -52.75 32.5625 C-54.14114052 26.99793793 -54.54276196 21.19887381 -51.8125 16 C-46.99225437 9.53072297 -42.22043868 6.96174359 -34.6875 4.6875 C-33.88618652 4.43597168 -33.08487305 4.18444336 -32.25927734 3.92529297 C-30.6839923 3.4323575 -29.10705222 2.94467262 -27.52832031 2.46289062 C-25.82735995 1.93377358 -24.14138987 1.35665024 -22.4609375 0.765625 C-15.12399964 -1.76764996 -7.42772578 -2.56594163 0 0 Z " fill="#004a40" transform="translate(81.4375,313.1875)"/>
</svg>